<svg width="40" height="42" viewBox="0 0 40 42" fill="none" xmlns="http://www.w3.org/2000/svg">
<path fill-rule="evenodd" clip-rule="evenodd" d="M19.1975 0.137072C19.0896 0.476131 18.7979 2.08348 18.5492 3.70932C17.4286 11.0318 12.8275 16.7033 6.11976 19.0303C4.79807 19.4889 3.15003 19.8773 2.45745 19.8929C-0.504141 19.9611 -0.461821 20.5431 2.5547 21.2311C11.4911 23.2691 17.0135 29.0072 18.8642 38.1787C19.6687 42.1656 19.792 42.1233 20.5281 37.6091C21.5015 31.642 25.1703 26.3445 30.1868 23.662C32.8298 22.2491 36.3835 21.0971 38.0994 21.0971C40.2976 21.0971 39.2246 20.4568 36.215 19.9735C27.8552 18.63 22.0675 12.5918 20.1484 3.21121C19.733 1.18137 19.3049 -0.201987 19.1975 0.137072Z" fill="white"/>
</svg>
